HIERARCHY
ROOT SpineBase
{
  OFFSET 0.000000 0.000000 0.000000
  CHANNELS 6 Xposition Yposition Zposition Zrotation Xrotation Yrotation
  JOINT SpineMid
  {
    OFFSET 0.000000 24.347883 0.000000
    CHANNELS 3 Zrotation Xrotation Yrotation
    JOINT SpineShoulder
    {
      OFFSET 0.025787 17.988935 -0.614114
      CHANNELS 3 Zrotation Xrotation Yrotation
      JOINT Neck
      {
        OFFSET 0.046536 5.932722 -0.454893
        CHANNELS 3 Zrotation Xrotation Yrotation
        JOINT Head
        {
          OFFSET 1.654582 9.988675 3.391493
          CHANNELS 3 Zrotation Xrotation Yrotation
          End Site
          {
            OFFSET 0 0 0
          }
        }
      }
      JOINT ShoulderLeft
      {
        OFFSET -3.847958 -4.813539 -11.436215
        CHANNELS 3 Zrotation Xrotation Yrotation
        JOINT ElbowLeft
        {
          OFFSET -0.415846 -19.698163 -5.564985
          CHANNELS 3 Zrotation Xrotation Yrotation
          JOINT WristLeft
          {
            OFFSET 3.528684 -20.825168 1.611118
            CHANNELS 3 Zrotation Xrotation Yrotation
            JOINT HandLeft
            {
              OFFSET 0.311896 -5.912812 2.573141
              CHANNELS 3 Zrotation Xrotation Yrotation
              JOINT HandTipLeft
              {
                OFFSET 1.774546 -6.074618 -0.867586
                CHANNELS 3 Zrotation Xrotation Yrotation
                End Site
                {
                  OFFSET 0 0 0
                }
              }
              JOINT ThumbLeft
              {
                OFFSET 3.846742 2.238393 3.204756
                CHANNELS 3 Zrotation Xrotation Yrotation
                End Site
                {
                  OFFSET 0 0 0
                }
              }
            }
          }
        }
      }
      JOINT ShoulderRight
      {
        OFFSET 6.827541 -5.300286 12.681288
        CHANNELS 3 Zrotation Xrotation Yrotation
        JOINT ElbowRight
        {
          OFFSET 1.775881 -25.148655 -14.401341
          CHANNELS 3 Zrotation Xrotation Yrotation
          JOINT WristRight
          {
            OFFSET 0.157798 -18.131355 20.148585
            CHANNELS 3 Zrotation Xrotation Yrotation
            JOINT HandRight
            {
              OFFSET -0.382248 -13.301994 6.901996
              CHANNELS 3 Zrotation Xrotation Yrotation
              JOINT HandTipRight
              {
                OFFSET 0.119258 -3.564995 0.987490
                CHANNELS 3 Zrotation Xrotation Yrotation
                End Site
                {
                  OFFSET 0 0 0
                }
              }
              JOINT ThumbRight
              {
                OFFSET 1.297170 0.996863 -0.842376
                CHANNELS 3 Zrotation Xrotation Yrotation
                End Site
                {
                  OFFSET 0 0 0
                }
              }
            }
          }
        }
      }
    }
  }
  JOINT HipLeft
  {
    OFFSET -1.455645 1.684992 -7.323303
    CHANNELS 3 Zrotation Xrotation Yrotation
    JOINT KneeLeft
    {
      OFFSET -7.434361 -41.170156 6.991262
      CHANNELS 3 Zrotation Xrotation Yrotation
      JOINT AnkleLeft
      {
        OFFSET -4.630566 -35.897273 5.053043
        CHANNELS 3 Zrotation Xrotation Yrotation
        JOINT FootLeft
        {
          OFFSET 3.257290 -5.915031 -0.762869
          CHANNELS 3 Zrotation Xrotation Yrotation
          End Site
          {
            OFFSET 0 0 0
          }
        }
      }
    }
  }
  JOINT HipRight
  {
    OFFSET 2.266016 -0.925520 1.723381
    CHANNELS 3 Zrotation Xrotation Yrotation
    JOINT KneeRight
    {
      OFFSET -5.293313 -40.601322 9.886077
      CHANNELS 3 Zrotation Xrotation Yrotation
      JOINT AnkleRight
      {
        OFFSET -8.335920 -32.293820 -3.536203
        CHANNELS 3 Zrotation Xrotation Yrotation
        JOINT FootRight
        {
          OFFSET 2.648903 -4.503795 4.815833
          CHANNELS 3 Zrotation Xrotation Yrotation
          End Site
          {
            OFFSET 0 0 0
          }
        }
      }
    }
  }
}
MOTION
Frames: 5
Frame Time: 0.033333
-52.553559 82.778247 346.167644 -0.086276 -0.193028 -70.256805 -0.152536 0.146410 70.256855 -0.000000 0.000000 0.000000 2.460111 1.766254 -1.163951 0.000000 0.000000 0.000000 -0.131868 -3.212547 0.102201 0.087070 4.029415 0.027930 -3.686607 0.961530 -1.677789 2.535747 -1.941575 1.674090 0.000000 0.000000 0.000000 0.000000 0.000000 0.000000 -0.556859 -1.304423 0.221954 0.714369 2.472182 -0.063718 -3.504613 -0.295000 -1.992577 6.278973 -6.253434 2.528611 0.000000 0.000000 0.000000 0.000000 0.000000 0.000000 0.788726 1.161606 70.560784 -1.270532 0.549778 -0.308577 5.670323 -8.005407 -4.662708 0.000000 0.000000 0.000000 -7.746886 -0.556217 68.521710 12.914264 -26.185961 9.101025 -2.476226 66.246999 41.788261 0.000000 0.000000 0.000000
-52.519716 82.832827 346.206100 0.021244 -0.208373 -70.140181 -0.203197 0.050808 70.140310 -0.000000 0.000000 0.000000 1.409635 1.922364 -0.817749 0.000000 0.000000 0.000000 0.193821 -3.264827 0.019869 -0.587865 4.314781 0.164878 -3.721129 0.738282 -1.868780 1.967964 -0.967938 2.256531 0.000000 0.000000 0.000000 0.000000 0.000000 0.000000 -0.356393 -0.777570 0.147366 0.358425 0.776635 -0.152214 -3.863026 0.656486 -2.005705 6.651064 -7.249102 2.692699 0.000000 0.000000 0.000000 0.000000 0.000000 0.000000 0.678854 1.023797 70.428783 -1.212211 0.505190 -0.291400 7.674441 -6.545197 -4.038902 0.000000 0.000000 0.000000 -11.722601 -0.555333 67.559215 17.728533 -32.716407 13.008097 3.488989 64.210558 31.650020 0.000000 0.000000 0.000000
-52.462570 82.894629 346.260984 0.125956 -0.242749 -69.759125 -0.271335 -0.034194 69.759311 -0.000000 0.000000 0.000000 0.722007 1.829373 -0.557286 0.000000 0.000000 0.000000 0.162254 -2.384624 0.007934 -0.599310 3.171107 0.119623 -4.367644 0.892475 -2.113907 4.060557 -0.548959 2.466569 0.000000 0.000000 0.000000 0.000000 0.000000 0.000000 -0.509620 -3.215526 0.051245 0.750776 5.838376 0.190075 -4.186510 -1.566655 -2.523119 9.518757 -7.657882 3.729204 0.000000 0.000000 0.000000 0.000000 0.000000 0.000000 0.412375 0.957552 70.006211 -1.165727 0.303433 -0.249323 8.844740 -5.549584 -3.638412 0.000000 0.000000 0.000000 -14.551694 -0.589161 66.544544 22.797018 -37.312624 16.890042 -6.538070 64.242703 27.632810 0.000000 0.000000 0.000000
-52.392092 82.968631 346.391309 0.236549 -0.221492 -69.319566 -0.290758 -0.143086 69.319660 -0.000000 0.000000 0.000000 0.050579 1.966582 -0.341861 0.000000 0.000000 0.000000 0.320142 -2.177460 -0.038596 -0.935145 2.851412 0.144805 -4.483219 0.341729 -2.257320 4.399735 -2.316278 1.876722 0.000000 0.000000 0.000000 0.000000 0.000000 0.000000 -0.686204 -3.130523 0.155590 0.900273 5.865059 0.036951 -4.079846 -2.270249 -2.445293 10.772603 -7.325496 4.051085 0.000000 0.000000 0.000000 0.000000 0.000000 0.000000 0.221281 0.781562 69.522246 -0.798235 1.036563 -0.286031 8.759093 -6.303880 -3.383209 0.000000 0.000000 0.000000 -16.471962 -0.696764 65.621475 26.059613 -39.432866 19.302869 -23.171144 57.688615 17.882370 0.000000 0.000000 0.000000
-52.423631 83.073376 346.452061 0.191653 -0.287052 -68.624986 -0.337159 -0.073849 68.625249 -0.000000 0.000000 0.000000 -1.484025 1.952608 0.204104 0.000000 0.000000 0.000000 0.069381 -0.964000 0.001337 -0.069368 0.964001 -0.000170 -5.222521 1.756191 -2.120576 6.493149 -4.916178 1.190485 0.000000 0.000000 0.000000 0.000000 0.000000 0.000000 -1.068880 -2.897198 0.386297 1.221618 5.864714 -0.300218 -3.305511 -3.350545 -1.966153 10.728043 -9.105960 3.830337 0.000000 0.000000 0.000000 0.000000 0.000000 0.000000 -0.146200 1.074721 68.773870 -0.825676 0.660779 -0.226063 8.250151 -5.271421 -2.879603 0.000000 0.000000 0.000000 -18.244623 -0.185450 64.660607 29.461144 -42.167887 22.319854 -27.084812 58.882922 17.813393 0.000000 0.000000 0.000000
